<svg width="21" height="22" viewBox="0 0 21 22" fill="none" xmlns="http://www.w3.org/2000/svg">
<path d="M4.25563 4.98701C4.69499 5.43464 5.31512 5.7136 6.00238 5.7136C7.3346 5.7136 8.41457 4.66539 8.41457 3.37236C8.41457 2.07933 7.3346 1.03113 6.00238 1.03113C5.12373 1.03113 4.35481 1.4871 3.93308 2.16854C3.56265 2.76709 3.00702 3.37236 2.28762 3.37236C1.56823 3.37236 0.985046 3.93839 0.985046 4.63663V18.8337C0.985046 19.5527 1.58558 20.1356 2.32638 20.1356H18.7482C19.489 20.1356 20.0895 19.5527 20.0895 18.8337V4.67424C20.0895 3.95523 19.489 3.37236 18.7482 3.37236H17.5809M13.3255 4.98701C13.7649 5.43463 14.385 5.7136 15.0723 5.7136C16.4045 5.7136 17.4845 4.66539 17.4845 3.37236C17.4845 2.07933 16.4045 1.03113 15.0723 1.03113C14.2075 1.03113 13.449 1.47282 13.0232 2.13644C12.6316 2.74678 12.0596 3.37236 11.3188 3.37236H8.51116M2.91478 8.3357H19.993" stroke="black" stroke-width="0.833333" stroke-linecap="round"/>
<path d="M6.51562 12.1986L6.98438 12.6674L6.51562 13.1361L6.04688 12.6674L6.51562 12.1986ZM6.55078 15.4271C6.85742 15.4271 7.0957 15.3773 7.26562 15.2777C7.4375 15.1801 7.55859 15.0482 7.62891 14.8822C7.70117 14.7181 7.7373 14.5375 7.7373 14.3402C7.7373 14.1176 7.7041 13.8939 7.6377 13.6693C7.57324 13.4427 7.50781 13.2445 7.44141 13.0746L8.06543 12.8344L8.29102 13.5316C8.32812 13.6449 8.38574 13.7367 8.46387 13.807C8.54395 13.8773 8.65723 13.9125 8.80371 13.9125H8.91797V14.5834H8.81543C8.70215 14.5834 8.61133 14.5736 8.54297 14.5541C8.47461 14.5326 8.41113 14.4965 8.35254 14.4457C8.33301 14.7738 8.25488 15.0609 8.11816 15.307C7.98145 15.5551 7.7832 15.7474 7.52344 15.8842C7.26367 16.0228 6.93945 16.0922 6.55078 16.0922C6.12891 16.0922 5.78711 16.0131 5.52539 15.8549C5.26367 15.6986 5.07227 15.4877 4.95117 15.222C4.83203 14.9564 4.77246 14.6605 4.77246 14.3344C4.77246 14.1156 4.79492 13.891 4.83984 13.6605C4.88672 13.4281 4.95215 13.2006 5.03613 12.9779L5.61035 13.2035C5.54785 13.3929 5.49414 13.5844 5.44922 13.7777C5.40625 13.9711 5.38477 14.1556 5.38477 14.3314C5.38477 14.5306 5.41992 14.7133 5.49023 14.8793C5.5625 15.0472 5.68262 15.1801 5.85059 15.2777C6.02051 15.3773 6.25391 15.4271 6.55078 15.4271ZM9.01406 14.5834H8.88516V13.9125H8.99941C9.11465 13.9125 9.21426 13.8754 9.29824 13.8011C9.38223 13.725 9.45937 13.6283 9.52969 13.5111C9.60195 13.392 9.67422 13.266 9.74648 13.1332C9.8207 13.0004 9.90371 12.8744 9.99551 12.7552C10.0873 12.6361 10.1957 12.5394 10.3207 12.4652C10.4477 12.391 10.6 12.3539 10.7777 12.3539C10.9906 12.3539 11.1723 12.3978 11.3227 12.4857C11.475 12.5736 11.598 12.6937 11.6918 12.8461C11.7875 12.9965 11.8529 13.1664 11.8881 13.3558C11.9135 13.4828 11.9496 13.5883 11.9965 13.6722C12.0434 13.7543 12.098 13.8148 12.1605 13.8539C12.225 13.8929 12.2934 13.9125 12.3656 13.9125H12.4418V14.5834H12.3627C12.2377 14.5834 12.1146 14.556 11.9936 14.5013C11.8744 14.4467 11.7777 14.3705 11.7035 14.2728C11.6156 14.3939 11.5111 14.4877 11.39 14.5541C11.2689 14.6185 11.1176 14.6508 10.9359 14.6508C10.8031 14.6508 10.6771 14.6312 10.558 14.5922C10.4408 14.5531 10.3256 14.4974 10.2123 14.4252C10.099 14.3529 9.98379 14.266 9.8666 14.1644C9.78848 14.2484 9.71133 14.3226 9.63516 14.3871C9.56094 14.4496 9.475 14.4984 9.37734 14.5336C9.27969 14.5668 9.15859 14.5834 9.01406 14.5834ZM10.7953 12.9984C10.7055 12.9984 10.6234 13.0287 10.5492 13.0892C10.477 13.1478 10.4115 13.223 10.3529 13.3148C10.2963 13.4066 10.2465 13.4984 10.2035 13.5902C10.266 13.6527 10.3275 13.7074 10.3881 13.7543C10.4486 13.8011 10.5062 13.8402 10.5609 13.8715C10.6352 13.9144 10.7035 13.9457 10.766 13.9652C10.8305 13.9847 10.8871 13.9945 10.9359 13.9945C11.0629 13.9945 11.1557 13.9574 11.2143 13.8832C11.2748 13.809 11.3051 13.7103 11.3051 13.5873C11.3051 13.4193 11.2602 13.2797 11.1703 13.1683C11.0805 13.0551 10.9555 12.9984 10.7953 12.9984ZM12.409 14.5834V13.9125H12.9627V13.8539C12.9627 13.6547 12.9822 13.4486 13.0213 13.2357C13.0604 13.0228 13.1229 12.8246 13.2088 12.641C13.2947 12.4574 13.408 12.309 13.5486 12.1957C13.6893 12.0824 13.8611 12.0258 14.0643 12.0258C14.24 12.0258 14.3904 12.0677 14.5154 12.1517C14.6404 12.2357 14.7361 12.3519 14.8025 12.5004C14.8709 12.6469 14.9051 12.8148 14.9051 13.0043C14.9051 13.1859 14.8699 13.3656 14.7996 13.5433C14.7293 13.7191 14.6326 13.8812 14.5096 14.0297C14.3885 14.1781 14.2498 14.3011 14.0936 14.3988C13.9393 14.4965 13.7762 14.556 13.6043 14.5775C13.6277 14.6654 13.6648 14.7543 13.7156 14.8441C13.7664 14.9359 13.827 15.0238 13.8973 15.1078C13.9695 15.1918 14.0486 15.264 14.1346 15.3246C14.1541 15.1156 14.198 14.9242 14.2664 14.7504C14.3348 14.5785 14.4236 14.4301 14.533 14.3051C14.6443 14.1801 14.7742 14.0834 14.9227 14.015C15.073 13.9467 15.2381 13.9125 15.4178 13.9125H15.5145V14.5834H15.4119C15.283 14.5834 15.1717 14.6 15.0779 14.6332C14.9861 14.6664 14.9109 14.7181 14.8523 14.7885C14.7937 14.8588 14.7498 14.9486 14.7205 15.058C14.6932 15.1693 14.6795 15.3011 14.6795 15.4535C14.6795 15.4984 14.6805 15.5463 14.6824 15.597C14.6844 15.6478 14.6873 15.6976 14.6912 15.7465L14.2635 16.1566C14.0564 16.0531 13.866 15.9193 13.6922 15.7552C13.5203 15.5931 13.3748 15.4115 13.2557 15.2103C13.1385 15.0092 13.0574 14.8002 13.0125 14.5834H12.409ZM14.0467 12.6732C13.9646 12.6732 13.8924 12.7074 13.8299 12.7758C13.7693 12.8422 13.7186 12.932 13.6775 13.0453C13.6365 13.1566 13.6053 13.2826 13.5838 13.4232C13.5643 13.5638 13.5545 13.7074 13.5545 13.8539V13.9154C13.699 13.9095 13.8309 13.8666 13.95 13.7865C14.0711 13.7045 14.1668 13.597 14.2371 13.4642C14.3094 13.3314 14.3455 13.1879 14.3455 13.0336C14.3455 12.9183 14.3182 12.8295 14.2635 12.767C14.2088 12.7045 14.1365 12.6732 14.0467 12.6732ZM15.4787 13.9125H15.6193V14.5834H15.4787V13.9125ZM16.0822 14.9877L16.551 15.4564L16.0822 15.9252L15.6135 15.4564L16.0822 14.9877ZM16.0119 14.5834H15.5402V13.9125H16.0119C16.1857 13.9125 16.3039 13.8607 16.3664 13.7572C16.4309 13.6537 16.4631 13.5219 16.4631 13.3617C16.4631 13.2308 16.4494 13.0912 16.4221 12.9427C16.3947 12.7924 16.3664 12.642 16.3371 12.4916L16.9582 12.3334C16.9934 12.5013 17.0207 12.6674 17.0402 12.8314C17.0617 12.9955 17.0725 13.1517 17.0725 13.3002C17.0725 13.5463 17.0393 13.766 16.9729 13.9594C16.9064 14.1527 16.7961 14.3051 16.6418 14.4164C16.4875 14.5277 16.2775 14.5834 16.0119 14.5834Z" fill="#050505"/>
</svg>
