<svg width="50" height="50" viewBox="0 0 50 50" fill="none" xmlns="http://www.w3.org/2000/svg">
<path d="M25.2153 0.701172C11.6039 0.701172 0.566406 12.0159 0.566406 25.9739C0.566406 37.14 7.62907 46.6132 17.4228 49.955C18.6547 50.189 19.1069 49.4068 19.1069 48.7393C19.1069 48.1366 19.0841 46.1458 19.0734 44.034C12.2161 45.5628 10.7691 41.0522 10.7691 41.0522C9.6479 38.131 8.03232 37.3543 8.03232 37.3543C5.79592 35.7857 8.20091 35.8179 8.20091 35.8179C10.6761 35.9962 11.9794 38.4223 11.9794 38.4223C14.1778 42.2859 17.7456 41.1689 19.1523 40.5232C19.3735 38.8897 20.0123 37.7748 20.7172 37.1438C15.2423 36.5047 9.48708 34.3377 9.48708 24.6539C9.48708 21.8947 10.45 19.6402 12.0267 17.8703C11.7708 17.2338 10.9271 14.6634 12.2655 11.1822C12.2655 11.1822 14.3354 10.503 19.0457 13.7728C21.0119 13.2128 23.1205 12.932 25.2153 12.9223C27.31 12.932 29.4203 13.2128 31.3901 13.7728C36.0947 10.503 38.1617 11.1822 38.1617 11.1822C39.5034 14.6634 38.6593 17.2338 38.4034 17.8703C39.9838 19.6402 40.9402 21.8947 40.9402 24.6539C40.9402 34.3607 35.1739 36.498 29.6852 37.1236C30.5693 37.9079 31.3571 39.4459 31.3571 41.8038C31.3571 45.1853 31.3285 47.9068 31.3285 48.7393C31.3285 49.4118 31.7722 50.1999 33.0216 49.9517C42.81 46.6062 49.8637 37.1362 49.8637 25.9739C49.8637 12.0159 38.8279 0.701172 25.2153 0.701172ZM9.7982 36.7027C9.74392 36.8282 9.55128 36.8659 9.37572 36.7797C9.19694 36.6972 9.09654 36.526 9.15449 36.4001C9.20756 36.2707 9.40065 36.2347 9.57899 36.3214C9.75822 36.4038 9.86026 36.5766 9.7982 36.7027ZM11.0106 37.8119C10.8931 37.9236 10.6633 37.8717 10.5074 37.6951C10.3462 37.5189 10.3159 37.2833 10.4351 37.1699C10.5563 37.0581 10.7792 37.1105 10.9409 37.2866C11.1021 37.4649 11.1335 37.6989 11.0106 37.8119ZM11.8425 39.2311C11.6914 39.3387 11.4445 39.2378 11.2918 39.0131C11.1408 38.7883 11.1408 38.5188 11.2951 38.4108C11.4481 38.3029 11.6914 38.4 11.8461 38.623C11.9968 38.8515 11.9968 39.121 11.8425 39.2311ZM13.2492 40.8748C13.114 41.0275 12.8263 40.9865 12.6157 40.7781C12.4002 40.5743 12.3402 40.2851 12.4757 40.1323C12.6124 39.9792 12.9018 40.0223 13.114 40.229C13.3279 40.4324 13.3932 40.7237 13.2492 40.8748ZM15.0672 41.4297C15.0076 41.6276 14.7305 41.7176 14.4513 41.6335C14.1725 41.5468 13.9901 41.315 14.0464 41.1149C14.1043 40.9157 14.3827 40.822 14.664 40.9119C14.9423 40.9982 15.1252 41.2283 15.0672 41.4297ZM17.1363 41.665C17.1432 41.8735 16.9064 42.0462 16.6134 42.05C16.3187 42.0567 16.0803 41.8881 16.077 41.683C16.077 41.4725 16.3085 41.3013 16.6032 41.2963C16.8962 41.2904 17.1363 41.4578 17.1363 41.665ZM19.1689 41.5851C19.204 41.7885 19.0003 41.9974 18.7092 42.053C18.4231 42.1066 18.1582 41.981 18.1219 41.7793C18.0864 41.5709 18.2937 41.362 18.5794 41.3081C18.8709 41.2562 19.1317 41.3784 19.1689 41.5851Z" fill="#161614"/>
</svg>
