<svg width="50" height="50" viewBox="0 0 50 50" fill="none" xmlns="http://www.w3.org/2000/svg">
<path fill-rule="evenodd" clip-rule="evenodd" d="M5.79533 11.9699C8.71079 11.9699 11.077 9.42164 11.077 6.28184C11.077 3.14201 8.71079 0.59375 5.79533 0.59375C2.87985 0.59375 0.513672 3.14201 0.513672 6.28184C0.513672 9.42164 2.87985 11.9699 5.79533 11.9699ZM0.513672 49.891V15.7624H11.077V49.891H0.513672ZM18.121 15.7624H27.8639V21.1396H28.0048C29.3603 18.5193 32.6772 15.7624 37.6244 15.7624C47.9095 15.7624 49.811 22.6564 49.811 31.6245V49.891H39.6525V33.6988C39.6525 29.8386 39.5785 24.8672 34.3708 24.8672C29.0823 24.8672 28.2723 29.0725 28.2723 33.4184V49.891H18.121V15.7624Z" fill="black"/>
</svg>
