<svg width="24" height="25" viewBox="0 0 24 25" fill="none" xmlns="http://www.w3.org/2000/svg">
<path d="M4.96547 17.727C6.47688 16.9184 7.35615 18.2388 7.60694 19C9.69821 17.7046 10.2874 12.7813 10.3207 10.4816C12.9777 12.284 15.9777 10.8733 17.1456 9.94249C20.0732 7.60944 19.1323 5.41827 17.0907 4.15819C15.9029 3.42505 15.4366 2.61197 15.1865 2C14.7069 2.87633 14.3608 4.3738 12.9586 5.31153C12.263 5.77675 10.0208 5.99642 8.85311 6.35939C2.6708 8.28109 3.6854 14.7385 4.96547 17.727ZM4.96547 17.727C4.61481 18.558 4.6302 20.2924 6.7175 20.796C6.95458 21.5893 8.01531 23.2896 10.3614 23.7445C13.2939 24.3131 15.327 23.8726 16.2773 23.0142C17.2275 22.1559 18.4011 19.9576 18.3762 17.9609M14.104 16.0623C14.2448 16.0505 14.3452 15.8643 14.3281 15.6462C14.311 15.4281 14.183 15.2609 14.0422 15.2726M14.104 16.0623C13.9632 16.074 13.8352 15.9068 13.8181 15.6887C13.8011 15.4707 13.9014 15.2844 14.0422 15.2726M14.104 16.0623L14.0422 15.2726M17.7564 13.8732C17.8771 13.8631 17.9631 13.7035 17.9484 13.5166C17.9338 13.3296 17.8242 13.1863 17.7034 13.1964M17.7564 13.8732C17.6357 13.8832 17.526 13.7399 17.5114 13.553C17.4968 13.3661 17.5827 13.2065 17.7034 13.1964M17.7564 13.8732L17.7034 13.1964M16.6099 10.3168C16.8367 10.5576 17.0029 10.8935 16.9252 11.5775M15.0701 14.7133L15.8184 14.2106M9.3191 16.5L12.0701 16.2166M17.2326 18.0224L18.6921 17.7991C18.9344 17.5418 19.3825 16.5558 18.3506 16.3709C17.9758 16.3343 17.1374 16.1332 16.7822 15.6207M13.7472 21.2994C14.2117 21.3757 15.3216 21.3537 16.0448 20.6555M15.3115 15.7435C15.3998 16.8719 14.7229 17.788 13.8721 17.8589C13.0213 17.9298 12.2108 17.1377 12.1225 16.0093C12.0342 14.8809 12.7111 13.9647 13.5619 13.8938C14.4127 13.8229 15.2232 14.6151 15.3115 15.7435ZM18.5577 13.6095C18.6011 14.1643 18.4762 14.6722 18.2487 15.0445C18.0211 15.4166 17.6995 15.6426 17.3439 15.6723C16.9883 15.702 16.6358 15.5322 16.3533 15.2025C16.0708 14.8727 15.8685 14.3921 15.8252 13.8373C15.7818 13.2826 15.9067 12.7747 16.1343 12.4024C16.3618 12.0302 16.6834 11.8042 17.039 11.7745C17.3945 11.7449 17.7472 11.9147 18.0296 12.2444C18.3121 12.5742 18.5143 13.0548 18.5577 13.6095Z" stroke="black" stroke-linecap="round"/>
</svg>
