<svg width="22" height="22" viewBox="0 0 22 22" fill="none" xmlns="http://www.w3.org/2000/svg">
<path d="M10.7447 1H17.5532C19.5587 1 21.1844 2.68965 21.1844 4.77394V13.2653C21.1844 15.3496 19.5587 17.0392 17.5532 17.0392H11.908C10.8786 17.0392 9.89756 17.4933 9.20893 18.2885L6.99696 20.8429C6.71867 21.1642 6.20568 20.9597 6.20568 20.5273V17.9827C6.20568 17.4616 5.79924 17.0392 5.29788 17.0392H4.84397C2.83851 17.0392 1.21277 15.3496 1.21277 13.2653V4.77394C1.21277 2.68965 2.83851 1 4.84397 1H5.75178M7.56738 1H8.92908" stroke="black" stroke-linecap="round"/>
<path d="M6.05078 12.5088C5.625 12.5088 5.28125 12.4287 5.01953 12.2686C4.75977 12.1084 4.57031 11.8955 4.45117 11.6299C4.33203 11.3643 4.27246 11.0703 4.27246 10.748C4.27246 10.5898 4.28613 10.416 4.31348 10.2266C4.34277 10.0352 4.39648 9.8291 4.47461 9.6084L5.0459 9.81934C4.98926 10.0029 4.94824 10.1738 4.92285 10.332C4.89941 10.4902 4.8877 10.6309 4.8877 10.7539C4.8877 10.9551 4.92285 11.1377 4.99316 11.3018C5.06543 11.4678 5.18555 11.5996 5.35352 11.6973C5.52344 11.7949 5.75586 11.8438 6.05078 11.8438C6.35156 11.8438 6.60156 11.8096 6.80078 11.7412C7.00195 11.6729 7.15234 11.5928 7.25195 11.501C7.35156 11.4092 7.40137 11.3311 7.40137 11.2666C7.40137 11.1826 7.36426 11.1172 7.29004 11.0703C7.21582 11.0254 7.09668 11.0029 6.93262 11.0029H6.4873C6.42871 11.0029 6.38965 10.9844 6.37012 10.9473C6.35254 10.9102 6.33496 10.8604 6.31738 10.7979L6.21777 10.4434C6.20996 10.4121 6.20996 10.3857 6.21777 10.3643C6.22559 10.3428 6.25195 10.332 6.29688 10.332H7.98438V11.0029H7.92871C7.9502 11.0518 7.96387 11.0957 7.96973 11.1348C7.97559 11.1738 7.97852 11.2158 7.97852 11.2607C7.97852 11.4111 7.9375 11.5605 7.85547 11.709C7.77539 11.8574 7.6543 11.9912 7.49219 12.1104C7.33008 12.2314 7.12891 12.3281 6.88867 12.4004C6.64844 12.4727 6.36914 12.5088 6.05078 12.5088ZM9.99355 11C9.78066 11 9.61074 10.9639 9.48379 10.8916C9.35684 10.8174 9.2543 10.7158 9.17617 10.5869C9.07656 10.7178 8.95449 10.8193 8.80996 10.8916C8.66543 10.9639 8.46914 11 8.22109 11H7.95156V10.3291H8.22695C8.3832 10.3291 8.51016 10.3135 8.60781 10.2822C8.70547 10.251 8.77676 10.1953 8.82168 10.1152C8.86855 10.0332 8.89199 9.91602 8.89199 9.76367C8.89199 9.73047 8.89102 9.68652 8.88906 9.63184C8.88711 9.57715 8.8832 9.51465 8.87734 9.44434C8.87148 9.37402 8.86562 9.2998 8.85977 9.22168L9.45742 9.14844L9.51016 9.83984C9.51992 9.98828 9.56484 10.1074 9.64492 10.1973C9.725 10.2852 9.84316 10.3291 9.99941 10.3291C10.1869 10.3291 10.3129 10.2832 10.3773 10.1914C10.4437 10.0996 10.477 9.95703 10.477 9.76367C10.477 9.73242 10.476 9.68945 10.474 9.63477C10.4721 9.57812 10.4682 9.51465 10.4623 9.44434C10.4564 9.37402 10.4506 9.2998 10.4447 9.22168L11.0424 9.14844L11.0951 9.83984C11.1029 9.98047 11.1391 10.0977 11.2035 10.1914C11.268 10.2832 11.3744 10.3291 11.5229 10.3291C11.6186 10.3291 11.6928 10.3047 11.7455 10.2559C11.8002 10.2051 11.8393 10.1377 11.8627 10.0537C11.8861 9.96973 11.8979 9.87891 11.8979 9.78125C11.8979 9.67773 11.8891 9.57227 11.8715 9.46484C11.8559 9.35742 11.8373 9.25781 11.8158 9.16602C11.7963 9.07227 11.7787 8.99902 11.7631 8.94629L12.3783 8.7793C12.4154 8.92188 12.4457 9.07227 12.4691 9.23047C12.4926 9.38867 12.5043 9.54688 12.5043 9.70508C12.5043 9.92969 12.473 10.1406 12.4105 10.3379C12.35 10.5352 12.2484 10.6943 12.1059 10.8154C11.9652 10.9365 11.7729 10.998 11.5287 11C11.3451 11 11.1947 10.9629 11.0775 10.8887C10.9604 10.8125 10.8637 10.7109 10.7875 10.584C10.682 10.7188 10.5639 10.8223 10.433 10.8945C10.3021 10.9648 10.1557 11 9.99355 11ZM12.5271 12.585L12.3016 11.9814C12.6043 11.915 12.8533 11.8203 13.0486 11.6973C13.2459 11.5762 13.3924 11.4238 13.4881 11.2402C13.5838 11.0586 13.6316 10.8428 13.6316 10.5928C13.6316 10.4209 13.6092 10.2354 13.5643 10.0361C13.5193 9.83691 13.4646 9.6416 13.4002 9.4502L14.0184 9.24512C14.0906 9.4502 14.1453 9.66113 14.1824 9.87793C14.2215 10.0947 14.241 10.3047 14.241 10.5078C14.241 10.8711 14.1756 11.1953 14.0447 11.4805C13.9139 11.7656 13.7215 12.0029 13.4676 12.1924C13.2137 12.3818 12.9002 12.5127 12.5271 12.585ZM15.0227 6.93359H15.6467V9.68164C15.6467 9.92773 15.6877 10.0977 15.7697 10.1914C15.8537 10.2832 15.9953 10.3291 16.1945 10.3291H16.2678V11H16.1945C15.7922 11 15.4963 10.8955 15.3068 10.6865C15.1174 10.4756 15.0227 10.1504 15.0227 9.71094V6.93359ZM17.5738 6.43262L18.0426 6.90137L17.5738 7.37012L17.1051 6.90137L17.5738 6.43262ZM17.6881 9.30371C17.7721 9.30371 17.8551 9.29785 17.9371 9.28613C18.0211 9.27246 18.1041 9.25488 18.1861 9.2334C18.1744 9.14551 18.1559 9.05469 18.1305 8.96094C18.1051 8.86523 18.0709 8.77734 18.0279 8.69727C17.9869 8.61719 17.9352 8.55273 17.8727 8.50391C17.8102 8.45312 17.735 8.42773 17.6471 8.42773C17.5436 8.42773 17.4586 8.45996 17.3922 8.52441C17.3277 8.58691 17.2799 8.66309 17.2486 8.75293C17.2174 8.84277 17.2018 8.92969 17.2018 9.01367C17.2018 9.13477 17.2447 9.21387 17.3307 9.25098C17.4186 9.28613 17.5377 9.30371 17.6881 9.30371ZM17.3512 10.3291C17.5484 10.3291 17.7096 10.3184 17.8346 10.2969C17.9615 10.2754 18.0553 10.2295 18.1158 10.1592C18.1783 10.0889 18.2105 9.98047 18.2125 9.83398C18.1285 9.85547 18.0416 9.87207 17.9518 9.88379C17.8619 9.89551 17.7682 9.90137 17.6705 9.90137C17.3346 9.90137 17.0748 9.83203 16.8912 9.69336C16.7096 9.55273 16.6187 9.33496 16.6187 9.04004C16.6187 8.84277 16.6598 8.64746 16.7418 8.4541C16.8238 8.25879 16.942 8.09766 17.0963 7.9707C17.2525 7.8418 17.4381 7.77734 17.6529 7.77734C17.8561 7.77734 18.0299 7.8291 18.1744 7.93262C18.3209 8.03418 18.44 8.1709 18.5318 8.34277C18.6236 8.51465 18.692 8.70801 18.7369 8.92285C18.7818 9.1377 18.8043 9.3584 18.8043 9.58496C18.8043 9.88184 18.776 10.123 18.7193 10.3086C18.6627 10.4941 18.5748 10.6377 18.4557 10.7393C18.3365 10.8389 18.1832 10.9072 17.9957 10.9443C17.8082 10.9814 17.5816 11 17.316 11H16.2379V10.3291H17.3512Z" fill="#050505"/>
</svg>
