<svg width="14" height="14" viewBox="0 0 14 14" fill="none" xmlns="http://www.w3.org/2000/svg">
<path d="M7.00006 0C3.13454 0 0 3.21327 0 7.17723C0 10.3483 2.00573 13.0386 4.78707 13.9877C5.13691 14.0541 5.26534 13.832 5.26534 13.6424C5.26534 13.4713 5.25885 12.9059 5.25583 12.3061C3.30842 12.7403 2.89749 11.4593 2.89749 11.4593C2.57906 10.6298 2.12025 10.4092 2.12025 10.4092C1.48514 9.9637 2.16813 9.97285 2.16813 9.97285C2.87106 10.0235 3.24119 10.7125 3.24119 10.7125C3.86552 11.8097 4.87875 11.4925 5.27822 11.3091C5.34105 10.8452 5.52246 10.5286 5.72264 10.3494C4.16783 10.1679 2.53339 9.55248 2.53339 6.80236C2.53339 6.01877 2.80684 5.37852 3.25463 4.87589C3.18195 4.69512 2.94235 3.96514 3.32245 2.97653C3.32245 2.97653 3.91026 2.78362 5.24796 3.71222C5.80633 3.55319 6.40517 3.47344 7.00006 3.4707C7.59495 3.47344 8.19425 3.55319 8.75367 3.71222C10.0897 2.78362 10.6767 2.97653 10.6767 2.97653C11.0578 3.96514 10.818 4.69512 10.7454 4.87589C11.1942 5.37852 11.4658 6.01877 11.4658 6.80236C11.4658 9.559 9.82823 10.166 8.26947 10.3437C8.52056 10.5664 8.74428 11.0032 8.74428 11.6728C8.74428 12.6331 8.73616 13.406 8.73616 13.6424C8.73616 13.8334 8.86217 14.0572 9.21699 13.9867C11.9968 13.0366 14 10.3472 14 7.17723C14 3.21327 10.8659 0 7.00006 0ZM2.62175 10.2241C2.60633 10.2597 2.55162 10.2705 2.50177 10.246C2.451 10.2226 2.42248 10.1739 2.43894 10.1382C2.45401 10.1014 2.50885 10.0912 2.5595 10.1158C2.61039 10.1392 2.63937 10.1883 2.62175 10.2241ZM2.96607 10.5391C2.93269 10.5708 2.86743 10.5561 2.82315 10.506C2.77737 10.4559 2.76878 10.389 2.80263 10.3568C2.83705 10.3251 2.90035 10.3399 2.94625 10.3899C2.99203 10.4406 3.00096 10.507 2.96607 10.5391ZM3.2023 10.9422C3.15941 10.9727 3.08927 10.9441 3.04592 10.8802C3.00303 10.8164 3.00303 10.7399 3.04685 10.7092C3.09031 10.6786 3.15941 10.7061 3.20334 10.7695C3.24612 10.8344 3.24612 10.9109 3.2023 10.9422ZM3.6018 11.4089C3.56342 11.4523 3.48171 11.4407 3.4219 11.3815C3.36068 11.3236 3.34365 11.2415 3.38214 11.1981C3.42096 11.1546 3.50314 11.1668 3.56342 11.2256C3.62416 11.2833 3.64271 11.366 3.6018 11.4089ZM4.1181 11.5665C4.10118 11.6227 4.02248 11.6483 3.94319 11.6244C3.86402 11.5998 3.8122 11.534 3.82819 11.4771C3.84465 11.4206 3.92372 11.3939 4.00358 11.4195C4.08263 11.444 4.13457 11.5094 4.1181 11.5665ZM4.7057 11.6334C4.70766 11.6926 4.64042 11.7416 4.5572 11.7427C4.47351 11.7446 4.40582 11.6967 4.40488 11.6385C4.40488 11.5787 4.4706 11.5301 4.55431 11.5287C4.63753 11.527 4.7057 11.5745 4.7057 11.6334ZM5.28293 11.6107C5.2929 11.6684 5.23505 11.7278 5.1524 11.7436C5.07114 11.7588 4.99592 11.7231 4.9856 11.6658C4.97552 11.6066 5.0344 11.5473 5.11554 11.532C5.19831 11.5173 5.27238 11.552 5.28293 11.6107Z" fill="#161614"/>
</svg>
