<svg width="12" height="12" viewBox="0 0 12 12" fill="none" xmlns="http://www.w3.org/2000/svg">
<path fill-rule="evenodd" clip-rule="evenodd" d="M1.28567 2.76919C1.99535 2.76919 2.57133 2.14889 2.57133 1.3846C2.57133 0.6203 1.99535 0 1.28567 0C0.575978 0 0 0.6203 0 1.3846C0 2.14889 0.575978 2.76919 1.28567 2.76919ZM0 12V3.69238H2.57133V12H0ZM4.286 3.69238H6.65763V5.00129H6.69192C7.02187 4.36345 7.82927 3.69238 9.03354 3.69238C11.5372 3.69238 12 5.37051 12 7.55353V12H9.52721V8.05847C9.52721 7.1188 9.5092 5.90866 8.24155 5.90866C6.95421 5.90866 6.75705 6.93233 6.75705 7.9902V12H4.286V3.69238Z" fill="black"/>
</svg>
