<svg width="21" height="22" viewBox="0 0 21 22" fill="none" xmlns="http://www.w3.org/2000/svg">
<path d="M17.1475 3.9869C16.4757 4.53269 16.2236 4.49104 14.9621 4.40688L3.06865 3.69274C2.81649 3.69274 3.02625 3.44109 3.11025 3.39926L5.08561 1.97133C5.46401 1.6775 5.96833 1.34099 6.93468 1.42517L18.4511 2.26514C18.8711 2.30678 18.955 2.51677 18.7877 2.6851L17.1475 3.9869ZM16.4334 6.75862V19.2726C16.4334 19.9451 16.0974 20.1968 15.3409 20.1552L2.27009 19.3988C1.51329 19.3572 1.42897 18.8945 1.42897 18.3483V5.9183C1.42897 5.37285 1.63873 5.07869 2.10209 5.12067L15.7613 5.9183C16.2653 5.96066 16.4334 6.2128 16.4334 6.75862ZM19.418 1.13134L7.43909 0.249211C5.96801 0.123043 5.58961 0.207556 4.66497 0.879183L0.841287 3.56674C0.210247 4.0289 5.28016e-06 4.15472 5.28016e-06 4.65853V19.3988C5.28016e-06 20.3225 0.336487 20.8689 1.51313 20.9524L15.4241 21.7926C16.3074 21.8347 16.7277 21.7088 17.1902 21.1204L20.0062 17.467C20.5107 16.7945 20.7206 16.2913 20.7206 15.7027V2.60061C20.7206 1.84515 20.3839 1.21501 19.418 1.13134Z" fill="black"/>
<path d="M8.83508 7.89355L10.0221 9.08057L8.83508 10.2612L7.65442 9.08057L8.83508 7.89355ZM8.9176 14.8633C9.51005 14.8633 9.97978 14.7681 10.3268 14.5776C10.6738 14.3914 10.9213 14.1354 11.0695 13.8096C11.2176 13.4795 11.2916 13.1029 11.2916 12.6797C11.2916 12.2311 11.2176 11.7656 11.0695 11.2832C10.9213 10.8008 10.75 10.3268 10.5553 9.86133L12.3644 9.18848C12.6141 9.84017 12.7876 10.4368 12.8849 10.9785C12.9822 11.516 13.0309 12.0703 13.0309 12.6416C13.0309 13.5049 12.8722 14.2476 12.5548 14.8696C12.2374 15.4917 11.7719 15.9699 11.1583 16.3042C10.549 16.6385 9.80204 16.8057 8.9176 16.8057C8.00777 16.8057 7.2524 16.63 6.65149 16.2788C6.05481 15.9276 5.61047 15.4473 5.31848 14.8379C5.02649 14.2327 4.88049 13.543 4.88049 12.7686C4.88049 12.2523 4.93762 11.7191 5.05188 11.1689C5.16614 10.6146 5.33118 10.0623 5.547 9.51221L7.19104 10.1406C7.03023 10.5977 6.89482 11.042 6.78479 11.4736C6.67476 11.9053 6.61975 12.3052 6.61975 12.6733C6.61975 13.0711 6.68958 13.4372 6.82922 13.7715C6.96887 14.1016 7.20585 14.366 7.54016 14.5649C7.87447 14.7638 8.33362 14.8633 8.9176 14.8633Z" fill="black"/>
</svg>
